# xmcd
#
# Track frame offsets:
#	150
#	12926
#	24606
#	39383
#	50363
#	63298
#	72576
#	84561
#	92576
#	102083
#	113877
#	124301
#	136106
#	144798
#	155653
#	166578
#	176908
#	187421
#	198092
#	210992
#	222801
#	233701
#	245958
#	256653
#
# Disc length: 3548 seconds
#
# Revision: 0
# Processed by: cddbd v1.4PL0 Copyright (c) Steve Scherf et al.
# Submitted via: EasyCDDAExtractor 4.6.0.1
#
DISCID=4c0dda18
DTITLE=Porter Wagoner - The Cold Hard Facts of Life - The Carroll County Accid
DTITLE=ent
DYEAR=1900
DGENRE=Country
TTITLE0=The First Mrs. Jones
TTITLE1=Words And Music
TTITLE2=The Cold Hard Facts Of Life
TTITLE3=Sleep
TTITLE4=Hundred Dollar Funeral
TTITLE5=If I Could Only Start Over
TTITLE6=Tragic Romance
TTITLE7=Try Being Lonely
TTITLE8=I'll Get Ahead Someday
TTITLE9=I Just Can't Let You Say Goodbye
TTITLE10=Shopworn
TTITLE11=Julie
TTITLE12=The World Needs A Washin'
TTITLE13=Banks Of The Ohio
TTITLE14=Sing Me Back Home
TTITLE15=Barefoot Nellie
TTITLE16=Sorrow Overtakes The Wine
TTITLE17=Black Jack's Bar
TTITLE18=The Carroll County Accident
TTITLE19=Rocky Top
TTITLE20=Your Mother's Eyes
TTITLE21=Ding Of The Cannon County Hills
TTITLE22=I Lived So Fast And Hard
TTITLE23=Fallen Leaves
EXTD=
EXTT0=
EXTT1=
EXTT2=
EXTT3=
EXTT4=
EXTT5=
EXTT6=
EXTT7=
EXTT8=
EXTT9=
EXTT10=
EXTT11=
EXTT12=
EXTT13=
EXTT14=
EXTT15=
EXTT16=
EXTT17=
EXTT18=
EXTT19=
EXTT20=
EXTT21=
EXTT22=
EXTT23=
PLAYORDER=
